SplineFontDB: 3.0
FontName: VexillaNationum
FullName: Vexilla Nationum
FamilyName: Vexilla Nationum
Weight: Medium
Copyright: Created by MihailJP with FontForge 2.0 (http://fontforge.sf.net)
UComments: "2012-1-28: Created." 
Version: 001.000
StrokeWidth: 16
ItalicAngle: 0
UnderlinePosition: -202
UnderlineWidth: 100
Ascent: 1664
Descent: 384
LayerCount: 2
Layer: 0 0 "+gMyXYgAA"  1
Layer: 1 0 "+Uk2XYgAA"  0
StrokedFont: 1
XUID: [1021 709 1998960599 8305003]
FSType: 8
OS2Version: 2
OS2_WeightWidthSlopeOnly: 0
OS2_UseTypoMetrics: 1
CreationTime: 1327729045
ModificationTime: 1327826544
PfmFamily: 17
TTFWeight: 500
TTFWidth: 5
LineGap: 377
VLineGap: 0
OS2TypoAscent: 0
OS2TypoAOffset: 1
OS2TypoDescent: 0
OS2TypoDOffset: 1
OS2TypoLinegap: 377
OS2WinAscent: 0
OS2WinAOffset: 1
OS2WinDescent: 0
OS2WinDOffset: 1
HheadAscent: 0
HheadAOffset: 1
HheadDescent: 0
HheadDOffset: 1
OS2Vendor: 'PfEd'
Lookup: 4 0 0 "Compositio figurarum vexillorum"  {"Compositio figurarum vexillorum-1"  } ['ccmp' ('DFLT' <'dflt' > 'latn' <'dflt' > ) ]
MarkAttachClasses: 1
DEI: 91125
LangName: 1033 
Encoding: UnicodeBmp
UnicodeInterp: none
NameList: Adobe Glyph List
DisplaySize: -48
AntiAlias: 1
FitToEm: 1
WidthSeparation: 150
WinInfo: 60704 16 2
BeginPrivate: 0
EndPrivate
Grid
1952 1664 m 25
 2016 1664 l 25
1952 1536 m 25
 2016 1536 l 25
1952 1408 m 25
 2016 1408 l 25
1952 1280 m 25
 2016 1280 l 25
1952 1152 m 25
 2016 1152 l 25
1952 1024 m 25
 2016 1024 l 25
1952 896 m 25
 2016 896 l 25
1952 768 m 25
 2016 768 l 25
1952 640 m 25
 2016 640 l 25
1952 512 m 25
 2016 512 l 25
1952 384 m 25
 2016 384 l 25
1952 256 m 25
 2016 256 l 25
1952 -384 m 25
 2016 -384 l 25
1952 -256 m 25
 2016 -256 l 25
1952 -128 m 25
 2016 -128 l 25
1952 0 m 25
 2016 0 l 25
1952 128 m 25
 2016 128 l 25
1824 1664 m 25
 1888 1664 l 25
1824 1536 m 25
 1888 1536 l 25
1824 1408 m 25
 1888 1408 l 25
1824 1280 m 25
 1888 1280 l 25
1824 1152 m 25
 1888 1152 l 25
1824 1024 m 25
 1888 1024 l 25
1824 896 m 25
 1888 896 l 25
1824 768 m 25

StartChar: .notdef
Encoding: 0 0 0
Width: 1411
Flags: W
LayerCount: 2
Fore
SplineSet
173 1556 m 25
 173 -328 l 25
 1238 -328 l 25
 1238 1556 l 25
 173 1556 l 25
EndSplineSet
EndChar

StartChar: exclam
Encoding: 33 33 2
Width: 430
Flags: W
LayerCount: 2
Fore
SplineSet
174 41 m 0
 174 64 192 82 215 82 c 0
 238 82 256 64 256 41 c 0
 256 18 238 0 215 0 c 0
 192 0 174 18 174 41 c 0
215 1270 m 25
 215 328 l 25
EndSplineSet
EndChar

StartChar: quotedbl
Encoding: 34 34 3
Width: 781
Flags: W
LayerCount: 2
Fore
SplineSet
595 1270 m 25
 595 983 l 25
186 1270 m 25
 186 983 l 25
EndSplineSet
EndChar

StartChar: numbersign
Encoding: 35 35 4
Width: 1191
Flags: W
LayerCount: 2
Fore
SplineSet
186 451 m 25
 1005 451 l 25
186 860 m 25
 1005 860 l 25
800 1270 m 25
 800 41 l 25
391 1270 m 25
 391 41 l 25
EndSplineSet
EndChar

StartChar: dollar
Encoding: 36 36 5
Width: 1191
Flags: W
LayerCount: 2
Fore
SplineSet
1005 860 m 16
 1005 979 774 1065 595 1065 c 8
 414 1065 186 998 186 847 c 8
 186 494 1005 817 1005 464 c 16
 1005 313 821 246 595 246 c 8
 416 246 186 332 186 451 c 8
595 1270 m 25
 595 41 l 25
EndSplineSet
EndChar

StartChar: percent
Encoding: 37 37 6
Width: 1413
Flags: W
LayerCount: 2
Fore
SplineSet
747 287 m 24
 747 423 857 532 993 532 c 24
 1129 532 1239 423 1239 287 c 24
 1239 151 1129 41 993 41 c 24
 857 41 747 151 747 287 c 24
174 1024 m 24
 174 1160 284 1270 420 1270 c 24
 556 1270 665 1160 665 1024 c 24
 665 888 556 778 420 778 c 24
 284 778 174 888 174 1024 c 24
1239 1270 m 25
 178 41 l 25
EndSplineSet
EndChar

StartChar: ampersand
Encoding: 38 38 7
Width: 1314
Flags: W
LayerCount: 2
Fore
SplineSet
1128 41 m 24
 777 424 227 799 227 1024 c 0
 227 1206 422 1270 595 1270 c 24
 768 1270 964 1250 964 1024 c 8
 964 627 186 820 186 369 c 0
 186 54 390 41 595 41 c 16
 883 41 959 281 1005 451 c 0
EndSplineSet
EndChar

StartChar: quotesingle
Encoding: 39 39 8
Width: 372
Flags: W
LayerCount: 2
Fore
SplineSet
186 1270 m 25
 186 983 l 25
EndSplineSet
EndChar

StartChar: parenleft
Encoding: 40 40 9
Width: 782
Flags: W
LayerCount: 2
Fore
SplineSet
596 1270 m 16
 348 1022 186 821 186 471 c 24
 186 121 348 -80 596 -328 c 8
EndSplineSet
EndChar

StartChar: parenright
Encoding: 41 41 10
Width: 781
Flags: W
LayerCount: 2
Fore
SplineSet
186 1270 m 16
 434 1022 595 821 595 471 c 24
 595 121 434 -80 186 -328 c 8
EndSplineSet
EndChar

StartChar: asterisk
Encoding: 42 42 11
Width: 1295
Flags: W
LayerCount: 2
Fore
SplineSet
186 922 m 25
 1109 389 l 25
1109 922 m 25
 186 389 l 25
647 1188 m 25
 647 123 l 25
EndSplineSet
EndChar

StartChar: plus
Encoding: 43 43 12
Width: 1437
Flags: W
LayerCount: 2
Fore
SplineSet
718 1188 m 25
 718 123 l 25
186 655 m 25
 1251 655 l 25
EndSplineSet
EndChar

StartChar: comma
Encoding: 44 44 13
Width: 512
Flags: W
LayerCount: 2
Fore
SplineSet
256 41 m 0
 256 64 274 82 297 82 c 0
 320 82 338 64 338 41 c 0
 338 18 320 0 297 0 c 0
 274 0 256 18 256 41 c 0
334 41 m 17
 334 -106 278 -224 174 -328 c 8
EndSplineSet
EndChar

StartChar: hyphen
Encoding: 45 45 14
Width: 1191
Flags: W
LayerCount: 2
Fore
SplineSet
186 655 m 25
 1005 655 l 29
EndSplineSet
EndChar

StartChar: period
Encoding: 46 46 15
Width: 430
Flags: W
LayerCount: 2
Fore
SplineSet
174 41 m 0
 174 64 192 82 215 82 c 0
 238 82 256 64 256 41 c 0
 256 18 238 0 215 0 c 0
 192 0 174 18 174 41 c 0
EndSplineSet
EndChar

StartChar: slash
Encoding: 47 47 16
Width: 1191
Flags: W
LayerCount: 2
Fore
SplineSet
1005 1270 m 25
 186 -328 l 29
EndSplineSet
EndChar

StartChar: zero
Encoding: 48 48 17
Width: 1167
Flags: W
LayerCount: 2
Fore
SplineSet
583 1270 m 24
 357 1270 174 1086 174 860 c 16
 174 700 174 611 174 451 c 8
 174 225 357 41 583 41 c 24
 809 41 993 225 993 451 c 16
 993 611 993 700 993 860 c 8
 993 1086 809 1270 583 1270 c 24
EndSplineSet
EndChar

StartChar: one
Encoding: 49 49 18
Width: 576
Flags: W
LayerCount: 2
Fore
SplineSet
186 860 m 25
 390 1270 l 25
 390 41 l 29
EndSplineSet
EndChar

StartChar: two
Encoding: 50 50 19
Width: 1191
Flags: W
LayerCount: 2
Fore
SplineSet
186 860 m 16
 186 1086 369 1270 595 1270 c 24
 821 1270 1005 1086 1005 860 c 0
 1005 512 577 267 186 41 c 13
 1005 41 l 25
EndSplineSet
EndChar

StartChar: three
Encoding: 51 51 20
Width: 1191
Flags: W
LayerCount: 2
Fore
SplineSet
186 1270 m 25
 1005 1270 l 25
 391 778 l 17
 452 839 509 860 595 860 c 16
 821 860 1005 677 1005 451 c 24
 1005 225 821 41 595 41 c 24
 369 41 186 225 186 451 c 8
EndSplineSet
EndChar

StartChar: four
Encoding: 52 52 21
Width: 1191
Flags: W
LayerCount: 2
Fore
SplineSet
800 41 m 25
 800 1270 l 25
 186 451 l 25
 1005 451 l 25
EndSplineSet
EndChar

StartChar: five
Encoding: 53 53 22
Width: 1191
Flags: W
LayerCount: 2
Fore
SplineSet
1005 1270 m 25
 227 1270 l 25
 227 778 l 17
 368 859 448 860 595 860 c 16
 821 860 1005 677 1005 451 c 24
 1005 225 821 41 595 41 c 24
 369 41 186 225 186 451 c 8
EndSplineSet
EndChar

StartChar: six
Encoding: 54 54 23
Width: 1191
Flags: W
LayerCount: 2
Fore
SplineSet
800 1270 m 16
 491 1091 186 808 186 451 c 24
 186 225 369 41 595 41 c 24
 821 41 1005 225 1005 451 c 24
 1005 677 821 860 595 860 c 24
 369 860 186 677 186 451 c 8
EndSplineSet
EndChar

StartChar: seven
Encoding: 55 55 24
Width: 1191
Flags: W
LayerCount: 2
Fore
SplineSet
186 1270 m 25
 1005 1270 l 17
 752 833 595 546 595 41 c 8
EndSplineSet
EndChar

StartChar: eight
Encoding: 56 56 25
Width: 1167
Flags: W
LayerCount: 2
Fore
SplineSet
583 1270 m 24
 391 1270 215 1157 215 942 c 8
 215 565 993 746 993 369 c 16
 993 143 788 41 583 41 c 24
 378 41 174 143 174 369 c 8
 174 746 952 565 952 942 c 16
 952 1157 775 1270 583 1270 c 24
EndSplineSet
EndChar

StartChar: nine
Encoding: 57 57 26
Width: 1191
Flags: W
LayerCount: 2
Fore
SplineSet
391 41 m 16
 700 220 1005 503 1005 860 c 24
 1005 1086 821 1270 595 1270 c 24
 369 1270 186 1086 186 860 c 24
 186 634 369 451 595 451 c 24
 821 451 1005 634 1005 860 c 8
EndSplineSet
EndChar

StartChar: colon
Encoding: 58 58 27
Width: 430
Flags: W
LayerCount: 2
Fore
SplineSet
174 860 m 0
 174 883 192 901 215 901 c 0
 238 901 256 883 256 860 c 0
 256 837 238 819 215 819 c 0
 192 819 174 837 174 860 c 0
174 41 m 0
 174 64 192 82 215 82 c 0
 238 82 256 64 256 41 c 0
 256 18 238 0 215 0 c 0
 192 0 174 18 174 41 c 0
EndSplineSet
EndChar

StartChar: semicolon
Encoding: 59 59 28
Width: 512
Flags: W
LayerCount: 2
Fore
SplineSet
256 860 m 0
 256 883 274 901 297 901 c 0
 320 901 338 883 338 860 c 0
 338 837 320 819 297 819 c 0
 274 819 256 837 256 860 c 0
256 41 m 0
 256 64 274 82 297 82 c 0
 320 82 338 64 338 41 c 0
 338 18 320 0 297 0 c 0
 274 0 256 18 256 41 c 0
334 41 m 17
 334 -106 278 -224 174 -328 c 8
EndSplineSet
EndChar

StartChar: less
Encoding: 60 60 29
Width: 1437
Flags: W
LayerCount: 2
Fore
SplineSet
1251 1270 m 25
 186 655 l 25
 1251 41 l 29
EndSplineSet
EndChar

StartChar: equal
Encoding: 61 61 30
Width: 1437
Flags: W
LayerCount: 2
Fore
SplineSet
186 451 m 25
 1251 451 l 25
186 860 m 25
 1251 860 l 25
EndSplineSet
EndChar

StartChar: greater
Encoding: 62 62 31
Width: 1437
Flags: W
LayerCount: 2
Fore
SplineSet
186 1270 m 25
 1251 655 l 25
 186 41 l 25
EndSplineSet
EndChar

StartChar: question
Encoding: 63 63 32
Width: 1167
Flags: W
LayerCount: 2
Fore
SplineSet
542 41 m 0
 542 64 560 82 583 82 c 0
 606 82 624 64 624 41 c 0
 624 18 606 0 583 0 c 0
 560 0 542 18 542 41 c 0
174 860 m 16
 174 1086 357 1270 583 1270 c 16
 788 1270 993 1127 993 901 c 0
 993 696 583 656 583 328 c 0
EndSplineSet
EndChar

StartChar: at
Encoding: 64 64 33
Width: 1437
Flags: W
LayerCount: 2
Fore
SplineSet
923 983 m 0
 554 987 514 881 514 655 c 8
 514 476 539 246 718 246 c 24
 897 246 923 303 923 655 c 0
 923 757 923 369 923 983 c 1
 923 739 899 246 1046 246 c 0
 1225 246 1251 476 1251 655 c 8
 1251 972 1035 1270 718 1270 c 24
 401 1270 186 972 186 655 c 24
 186 338 401 41 718 41 c 16
 931 41 1066 57 1251 164 c 8
EndSplineSet
EndChar

StartChar: A
Encoding: 65 65 34
Width: 1431
Flags: W
LayerCount: 2
Fore
SplineSet
363 451 m 25
 1064 451 l 25
183 41 m 25
 715 1270 l 25
 1248 41 l 25
EndSplineSet
EndChar

StartChar: B
Encoding: 66 66 35
Width: 1169
Flags: W
LayerCount: 2
Fore
SplineSet
175 41 m 25
 175 1270 l 25
 335 1270 376 1270 584 1270 c 8
 766 1270 953 1165 953 983 c 24
 953 791 776 655 584 655 c 16
 376 655 335 655 175 655 c 25
 335 655 376 655 584 655 c 8
 799 655 994 502 994 287 c 24
 994 101 770 41 584 41 c 16
 376 41 335 41 175 41 c 25
EndSplineSet
EndChar

StartChar: C
Encoding: 67 67 36
Width: 1431
Flags: W
LayerCount: 2
Fore
SplineSet
1248 860 m 16
 1248 1122 977 1270 715 1270 c 8
 398 1270 183 972 183 655 c 24
 183 338 398 41 715 41 c 16
 977 41 1248 189 1248 451 c 8
EndSplineSet
EndChar

StartChar: D
Encoding: 68 68 37
Width: 1292
Flags: W
LayerCount: 2
Fore
SplineSet
175 41 m 25
 175 1270 l 25
 255 1270 300 1270 380 1270 c 8
 754 1270 1117 1029 1117 655 c 24
 1117 281 719 41 380 41 c 8
 300 41 255 41 175 41 c 25
EndSplineSet
EndChar

StartChar: E
Encoding: 69 69 38
Width: 1185
Flags: W
LayerCount: 2
Fore
SplineSet
183 655 m 25
 961 655 l 25
1002 1270 m 25
 183 1270 l 25
 183 41 l 25
 1002 41 l 25
EndSplineSet
EndChar

StartChar: F
Encoding: 70 70 39
Width: 1185
Flags: W
LayerCount: 2
Fore
SplineSet
183 655 m 25
 961 655 l 25
1002 1270 m 25
 183 1270 l 25
 183 41 l 25
EndSplineSet
EndChar

StartChar: G
Encoding: 71 71 40
Width: 1431
Flags: W
LayerCount: 2
Fore
SplineSet
838 655 m 25
 1248 655 l 25
1125 41 m 25
 1125 655 l 25
1125 1065 m 0
 1125 1167 977 1270 715 1270 c 8
 398 1270 183 972 183 655 c 24
 183 338 398 41 715 41 c 16
 977 41 1125 189 1125 451 c 8
EndSplineSet
EndChar

StartChar: H
Encoding: 72 72 41
Width: 1185
Flags: W
LayerCount: 2
Fore
SplineSet
183 655 m 25
 1002 655 l 25
1002 1270 m 25
 1002 41 l 25
183 1270 m 25
 183 41 l 25
EndSplineSet
EndChar

StartChar: I
Encoding: 73 73 42
Width: 775
Flags: W
LayerCount: 2
Fore
SplineSet
387 1270 m 25
 387 41 l 25
183 41 m 25
 592 41 l 25
183 1270 m 25
 592 1270 l 25
EndSplineSet
EndChar

StartChar: J
Encoding: 74 74 43
Width: 1185
Flags: W
LayerCount: 2
Fore
SplineSet
1002 1270 m 25
 1002 951 1002 770 1002 451 c 16
 1002 225 818 41 592 41 c 24
 366 41 183 225 183 451 c 8
EndSplineSet
EndChar

StartChar: K
Encoding: 75 75 44
Width: 1185
Flags: W
LayerCount: 2
Fore
SplineSet
1002 41 m 25
 388 655 l 25
1002 1270 m 25
 183 451 l 25
183 1270 m 25
 183 41 l 25
EndSplineSet
EndChar

StartChar: L
Encoding: 76 76 45
Width: 1185
Flags: W
LayerCount: 2
Fore
SplineSet
183 1266 m 25
 183 41 l 25
 1002 41 l 25
EndSplineSet
EndChar

StartChar: M
Encoding: 77 77 46
Width: 1431
Flags: W
LayerCount: 2
Fore
SplineSet
183 41 m 25
 183 1270 l 25
 715 451 l 25
 1248 1270 l 25
 1248 41 l 29
EndSplineSet
EndChar

StartChar: N
Encoding: 78 78 47
Width: 1185
Flags: W
LayerCount: 2
Fore
SplineSet
183 41 m 25
 183 1270 l 25
 1002 41 l 25
 1002 1270 l 29
EndSplineSet
EndChar

StartChar: O
Encoding: 79 79 48
Width: 1415
Flags: W
LayerCount: 2
Fore
SplineSet
707 1270 m 24
 390 1270 175 972 175 655 c 24
 175 338 390 41 707 41 c 24
 1024 41 1240 338 1240 655 c 24
 1240 972 1024 1270 707 1270 c 24
EndSplineSet
EndChar

StartChar: P
Encoding: 80 80 49
Width: 1185
Flags: W
LayerCount: 2
Fore
SplineSet
183 41 m 25
 183 1270 l 25
 343 1270 384 1270 592 1270 c 8
 787 1270 1002 1178 1002 983 c 24
 1002 778 797 655 592 655 c 16
 384 655 343 655 183 655 c 25
EndSplineSet
EndChar

StartChar: Q
Encoding: 81 81 50
Width: 1415
Flags: W
LayerCount: 2
Fore
SplineSet
707 455 m 25
 1240 41 l 25
707 1270 m 24
 390 1270 175 972 175 655 c 24
 175 338 390 41 707 41 c 24
 1024 41 1240 338 1240 655 c 24
 1240 972 1024 1270 707 1270 c 24
EndSplineSet
EndChar

StartChar: R
Encoding: 82 82 51
Width: 1185
Flags: W
LayerCount: 2
Fore
SplineSet
183 41 m 25
 183 1270 l 25
 343 1270 384 1270 592 1270 c 8
 774 1270 961 1165 961 983 c 24
 961 791 784 655 592 655 c 16
 384 655 343 655 183 655 c 25
 343 655 432 655 592 655 c 8
 880 655 1002 329 1002 41 c 8
EndSplineSet
EndChar

StartChar: S
Encoding: 83 83 52
Width: 1185
Flags: W
LayerCount: 2
Fore
SplineSet
1002 1065 m 16
 1002 1244 771 1270 592 1270 c 8
 387 1270 183 1168 183 942 c 8
 183 552 1002 759 1002 369 c 16
 1002 143 818 41 592 41 c 8
 413 41 183 67 183 246 c 8
EndSplineSet
EndChar

StartChar: T
Encoding: 84 84 53
Width: 1185
Flags: W
LayerCount: 2
Fore
SplineSet
592 1270 m 25
 592 41 l 25
183 1270 m 25
 1002 1270 l 25
EndSplineSet
EndChar

StartChar: U
Encoding: 85 85 54
Width: 1185
Flags: W
LayerCount: 2
Fore
SplineSet
1002 1270 m 25
 1002 951 1002 770 1002 451 c 16
 1002 225 818 41 592 41 c 24
 366 41 183 225 183 451 c 8
 183 770 183 951 183 1270 c 25
EndSplineSet
EndChar

StartChar: V
Encoding: 86 86 55
Width: 1185
Flags: W
LayerCount: 2
Fore
SplineSet
183 1270 m 25
 592 41 l 25
 1002 1270 l 29
EndSplineSet
EndChar

StartChar: W
Encoding: 87 87 56
Width: 1431
Flags: W
LayerCount: 2
Fore
SplineSet
183 1270 m 25
 511 41 l 25
 715 1065 l 25
 920 41 l 25
 1248 1270 l 25
EndSplineSet
EndChar

StartChar: X
Encoding: 88 88 57
Width: 1185
Flags: W
LayerCount: 2
Fore
SplineSet
1002 1270 m 25
 183 41 l 25
183 1270 m 25
 1002 41 l 25
EndSplineSet
EndChar

StartChar: Y
Encoding: 89 89 58
Width: 1185
Flags: W
LayerCount: 2
Fore
SplineSet
592 41 m 25
 592 655 l 25
183 1270 m 25
 592 655 l 25
 1002 1270 l 25
EndSplineSet
EndChar

StartChar: Z
Encoding: 90 90 59
Width: 1185
Flags: W
LayerCount: 2
Fore
SplineSet
183 1270 m 25
 1002 1270 l 25
 183 41 l 25
 1002 41 l 25
EndSplineSet
EndChar

StartChar: bracketleft
Encoding: 91 91 60
Width: 786
Flags: W
LayerCount: 2
Fore
SplineSet
596 1270 m 25
 186 1270 l 25
 186 -328 l 25
 600 -328 l 29
EndSplineSet
EndChar

StartChar: backslash
Encoding: 92 92 61
Width: 1191
Flags: W
LayerCount: 2
Fore
SplineSet
186 1270 m 25
 1005 -328 l 29
EndSplineSet
EndChar

StartChar: bracketright
Encoding: 93 93 62
Width: 785
Flags: W
LayerCount: 2
Fore
SplineSet
190 1270 m 25
 599 1270 l 25
 599 -328 l 25
 186 -328 l 25
EndSplineSet
EndChar

StartChar: asciicircum
Encoding: 94 94 63
Width: 1027
Flags: W
LayerCount: 2
Fore
SplineSet
186 860 m 29
 513 1270 l 25
 841 860 l 25
EndSplineSet
EndChar

StartChar: underscore
Encoding: 95 95 64
Width: 1437
Flags: W
LayerCount: 2
Fore
SplineSet
186 -328 m 25
 1251 -328 l 29
EndSplineSet
EndChar

StartChar: grave
Encoding: 96 96 65
Width: 781
Flags: W
LayerCount: 2
Fore
SplineSet
186 1270 m 25
 595 860 l 29
EndSplineSet
EndChar

StartChar: a
Encoding: 97 97 66
Width: 1021
Flags: W
LayerCount: 2
Fore
SplineSet
838 451 m 24
 582 371 183 514 183 246 c 8
 183 95 359 41 510 41 c 16
 646 41 741 67 838 164 c 8
183 655 m 16
 258 786 359 860 510 860 c 24
 661 860 838 806 838 655 c 16
 838 415 838 281 838 41 c 24
EndSplineSet
EndChar

StartChar: b
Encoding: 98 98 67
Width: 1021
Flags: W
LayerCount: 2
Fore
SplineSet
183 1270 m 25
 183 41 l 25
183 655 m 16
 183 806 359 860 510 860 c 8
 715 860 838 656 838 451 c 24
 838 246 715 41 510 41 c 16
 359 41 290 139 183 246 c 8
EndSplineSet
EndChar

StartChar: c
Encoding: 99 99 68
Width: 1021
Flags: W
LayerCount: 2
Fore
SplineSet
838 655 m 16
 838 806 661 860 510 860 c 8
 305 860 183 656 183 451 c 24
 183 246 305 41 510 41 c 16
 661 41 838 95 838 246 c 8
EndSplineSet
EndChar

StartChar: d
Encoding: 100 100 69
Width: 1021
Flags: W
LayerCount: 2
Fore
SplineSet
838 1270 m 25
 838 41 l 25
838 655 m 20
 838 806 661 860 510 860 c 8
 305 860 183 656 183 451 c 24
 183 246 305 41 510 41 c 16
 661 41 731 139 838 246 c 8
EndSplineSet
EndChar

StartChar: e
Encoding: 101 101 70
Width: 1021
Flags: W
LayerCount: 2
Fore
SplineSet
838 246 m 16
 838 95 661 41 510 41 c 8
 305 41 183 246 183 451 c 24
 183 656 305 860 510 860 c 0
 715 860 838 656 838 451 c 1
 582 451 439 451 183 451 c 25
EndSplineSet
EndChar

StartChar: f
Encoding: 102 102 71
Width: 898
Flags: W
LayerCount: 2
Fore
SplineSet
183 737 m 24
 391 737 507 737 715 737 c 24
715 1270 m 0
 387 1270 387 1147 387 860 c 0
 387 541 387 360 387 41 c 24
EndSplineSet
EndChar

StartChar: g
Encoding: 103 103 72
Width: 1185
Flags: W
LayerCount: 2
Fore
SplineSet
592 164 m 16
 422 164 183 138 183 -41 c 24
 183 -236 397 -328 592 -328 c 24
 787 -328 1002 -236 1002 -41 c 24
 1002 138 754 164 592 164 c 8
 449 164 265 185 265 328 c 16
 265 464 456 451 592 451 c 8
1002 860 m 24
 842 860 720 860 592 860 c 8
 442 860 265 809 265 659 c 24
 265 507 440 452 592 451 c 24
 743 450 920 504 920 655 c 24
 920 806 743 860 592 860 c 8
EndSplineSet
EndChar

StartChar: h
Encoding: 104 104 73
Width: 1021
Flags: W
LayerCount: 2
Fore
SplineSet
183 664 m 16
 183 813 361 862 510 860 c 24
 661 858 838 806 838 655 c 16
 838 415 838 281 838 41 c 24
183 1270 m 25
 183 41 l 25
EndSplineSet
EndChar

StartChar: i
Encoding: 105 105 74
Width: 432
Flags: W
LayerCount: 2
Fore
SplineSet
175 1270 m 0
 175 1293 193 1311 216 1311 c 0
 239 1311 257 1293 257 1270 c 0
 257 1247 239 1229 216 1229 c 0
 193 1229 175 1247 175 1270 c 0
216 860 m 25
 216 41 l 25
EndSplineSet
EndChar

StartChar: j
Encoding: 106 106 75
Width: 718
Flags: W
LayerCount: 2
Fore
SplineSet
461 1270 m 0
 461 1293 479 1311 502 1311 c 0
 525 1311 543 1293 543 1270 c 0
 543 1247 525 1229 502 1229 c 0
 479 1229 461 1247 461 1270 c 0
175 -328 m 0
 503 -328 502 -205 502 82 c 0
 502 401 502 556 502 860 c 24
EndSplineSet
EndChar

StartChar: k
Encoding: 107 107 76
Width: 1021
Flags: W
LayerCount: 2
Fore
SplineSet
838 41 m 25
 347 532 l 25
838 860 m 25
 183 451 l 25
183 1270 m 25
 183 41 l 25
EndSplineSet
EndChar

StartChar: l
Encoding: 108 108 77
Width: 366
Flags: W
LayerCount: 2
Fore
SplineSet
183 1270 m 25
 183 41 l 25
EndSplineSet
EndChar

StartChar: m
Encoding: 109 109 78
Width: 1431
Flags: W
LayerCount: 2
Fore
SplineSet
715 664 m 16
 715 813 894 862 1043 860 c 24
 1156 858 1248 768 1248 655 c 16
 1248 415 1248 281 1248 41 c 24
183 664 m 16
 183 813 362 862 511 860 c 24
 624 858 715 768 715 655 c 16
 715 415 715 281 715 41 c 24
183 860 m 25
 183 41 l 25
EndSplineSet
EndChar

StartChar: n
Encoding: 110 110 79
Width: 1021
Flags: W
LayerCount: 2
Fore
SplineSet
183 664 m 16
 183 813 361 862 510 860 c 24
 661 858 838 806 838 655 c 16
 838 415 838 281 838 41 c 24
183 860 m 25
 183 41 l 25
EndSplineSet
EndChar

StartChar: o
Encoding: 111 111 80
Width: 1007
Flags: W
LayerCount: 2
Fore
SplineSet
503 860 m 28
 298 860 176 656 176 451 c 24
 176 246 298 41 503 41 c 24
 708 41 831 246 831 451 c 24
 831 656 708 860 503 860 c 28
EndSplineSet
EndChar

StartChar: p
Encoding: 112 112 81
Width: 1021
Flags: W
LayerCount: 2
Fore
SplineSet
183 860 m 25
 183 -328 l 25
183 655 m 16
 183 806 359 860 510 860 c 8
 715 860 838 656 838 451 c 24
 838 246 715 41 510 41 c 16
 359 41 290 139 183 246 c 8
EndSplineSet
EndChar

StartChar: q
Encoding: 113 113 82
Width: 1021
Flags: W
LayerCount: 2
Fore
SplineSet
838 860 m 25
 838 -328 l 25
838 655 m 16
 838 806 661 860 510 860 c 8
 305 860 183 656 183 451 c 24
 183 246 305 41 510 41 c 16
 661 41 731 139 838 246 c 8
EndSplineSet
EndChar

StartChar: r
Encoding: 114 114 83
Width: 1021
Flags: W
LayerCount: 2
Fore
SplineSet
183 664 m 16
 183 813 361 862 510 860 c 24
 661 858 838 806 838 655 c 16
183 860 m 25
 183 41 l 25
EndSplineSet
EndChar

StartChar: s
Encoding: 115 115 84
Width: 1021
Flags: W
LayerCount: 2
Fore
SplineSet
797 655 m 16
 797 806 647 860 510 860 c 24
 373 860 224 806 224 655 c 8
 224 367 838 534 838 246 c 16
 838 95 661 41 510 41 c 8
 367 41 183 62 183 205 c 8
EndSplineSet
EndChar

StartChar: t
Encoding: 116 116 85
Width: 898
Flags: W
LayerCount: 2
Fore
SplineSet
183 737 m 24
 391 737 507 737 715 737 c 24
715 41 m 0
 387 41 387 164 387 451 c 0
 387 770 387 825 387 1065 c 24
EndSplineSet
EndChar

StartChar: u
Encoding: 117 117 86
Width: 1021
Flags: W
LayerCount: 2
Fore
SplineSet
838 238 m 16
 838 89 659 39 510 41 c 24
 359 43 183 95 183 246 c 16
 183 486 183 620 183 860 c 24
838 41 m 25
 838 860 l 25
EndSplineSet
EndChar

StartChar: v
Encoding: 118 118 87
Width: 1021
Flags: W
LayerCount: 2
Fore
SplineSet
183 860 m 25
 510 41 l 25
 838 860 l 25
EndSplineSet
EndChar

StartChar: w
Encoding: 119 119 88
Width: 1431
Flags: W
LayerCount: 2
Fore
SplineSet
183 860 m 25
 429 41 l 25
 715 856 l 25
 1002 41 l 25
 1248 860 l 25
EndSplineSet
EndChar

StartChar: x
Encoding: 120 120 89
Width: 1021
Flags: W
LayerCount: 2
Fore
SplineSet
838 860 m 25
 183 41 l 25
183 860 m 25
 838 41 l 25
EndSplineSet
EndChar

StartChar: y
Encoding: 121 121 90
Width: 1021
Flags: W
LayerCount: 2
Fore
SplineSet
838 860 m 25
 367 -328 l 25
183 860 m 25
 510 41 l 25
EndSplineSet
EndChar

StartChar: z
Encoding: 122 122 91
Width: 1021
Flags: W
LayerCount: 2
Fore
SplineSet
183 860 m 25
 838 860 l 25
 183 41 l 25
 838 41 l 29
EndSplineSet
EndChar

StartChar: braceleft
Encoding: 123 123 92
Width: 782
Flags: W
LayerCount: 2
Fore
SplineSet
596 1270 m 16
 417 1270 391 1039 391 860 c 8
 391 747 299 655 186 655 c 1
 299 655 391 564 391 451 c 8
 391 272 417 41 596 41 c 8
EndSplineSet
EndChar

StartChar: bar
Encoding: 124 124 93
Width: 372
Flags: W
LayerCount: 2
Fore
SplineSet
186 1556 m 25
 186 -328 l 29
EndSplineSet
EndChar

StartChar: braceright
Encoding: 125 125 94
Width: 781
Flags: W
LayerCount: 2
Fore
SplineSet
186 1270 m 16
 365 1270 391 1039 391 860 c 8
 391 747 482 655 595 655 c 1
 482 655 391 564 391 451 c 8
 391 272 365 41 186 41 c 8
EndSplineSet
EndChar

StartChar: asciitilde
Encoding: 126 126 95
Width: 1437
Flags: W
LayerCount: 2
Fore
SplineSet
186 655 m 16
 293 762 363 860 514 860 c 16
 740 860 697 451 923 451 c 16
 1074 451 1144 548 1251 655 c 8
EndSplineSet
EndChar

StartChar: Russia
Encoding: 61173 61173 122
Width: 2048
VWidth: 0
LayerCount: 2
Fore
SplineSet
0 448 m 9
 2048 448 l 17
0 832 m 25
 2048 832 l 17
0 704 m 9
 2048 704 l 17
0 576 m 9
 2048 576 l 17
64 412 m 25
 64 -43 l 25
1984 412 m 25
 1984 -43 l 25
1856 412 m 25
 1856 -43 l 25
1728 412 m 25
 1728 -43 l 25
1600 412 m 25
 1600 -43 l 25
1472 412 m 25
 1472 -43 l 25
1344 412 m 25
 1344 -43 l 25
1216 412 m 25
 1216 -43 l 25
1088 412 m 25
 1088 -43 l 25
960 412 m 25
 960 -43 l 25
832 412 m 25
 832 -43 l 25
704 412 m 25
 704 -43 l 25
576 412 m 25
 576 -43 l 25
448 412 m 25
 448 -43 l 25
320 412 m 25
 320 -43 l 25
192 412 m 25
 192 -43 l 25
1920 412 m 25
 1920 -43 l 25
1792 412 m 25
 1792 -43 l 25
1664 412 m 25
 1664 -43 l 25
1536 412 m 25
 1536 -43 l 25
1408 412 m 25
 1408 -43 l 25
1280 412 m 25
 1280 -43 l 25
1152 412 m 25
 1152 -43 l 25
1024 412 m 25
 1024 -43 l 25
896 412 m 25
 896 -43 l 25
768 412 m 25
 768 -43 l 25
640 412 m 25
 640 -43 l 25
512 412 m 25
 512 -43 l 25
384 412 m 25
 384 -43 l 25
256 412 m 25
 256 -43 l 25
128 412 m 25
 128 -43 l 25
0 768 m 25
 2048 768 l 17
0 640 m 9
 2048 640 l 17
0 512 m 9
 2048 512 l 17
0 868 m 1
 2048 868 l 1
 2048 1323 l 1
 0 1323 l 1
 0 868 l 1
0 -43 m 1
 2048 -43 l 1
 2048 412 l 1
 0 412 l 1
 0 -43 l 1
0 412 m 1
 2048 412 l 1
 2048 868 l 1
 0 868 l 1
 0 412 l 1
EndSplineSet
LCarets2: 1 0 
Ligature2: "Compositio figurarum vexillorum-1" Rregio Uregio
EndChar

StartChar: Iaponia
Encoding: 60912 60912 123
Width: 2048
VWidth: 0
LayerCount: 2
Fore
SplineSet
1344 933 m 17
 1344 706 1344 581 1344 347 c 9
1216 1019 m 25
 1216 260 l 25
1088 1046 m 17
 1088 774 1088 523 1088 233 c 9
960 1046 m 17
 960 774 960 523 960 233 c 9
832 1019 m 25
 832 260 l 25
704 933 m 25
 704 347 l 25
1408 820 m 25
 1408 460 l 25
1280 988 m 17
 1280 761 1280 525 1280 291 c 9
1152 1037 m 25
 1152 242 l 25
1024 1049 m 17
 1024 777 1024 520 1024 230 c 9
896 1037 m 25
 896 242 l 25
768 988 m 25
 768 292 l 25
640 820 m 25
 640 460 l 25
0 -43 m 1
 2048 -43 l 1
 2048 1322 l 1
 0 1322 l 1
 0 -43 l 1
614 640 m 0
 614 367 751 230 1024 230 c 0
 1297 230 1434 367 1434 640 c 0
 1434 913 1297 1049 1024 1049 c 0
 751 1049 614 913 614 640 c 0
EndSplineSet
LCarets2: 2 0 0 
Ligature2: "Compositio figurarum vexillorum-1" Jregio Pregio 
EndChar

StartChar: Francia
Encoding: 60786 60786 124
Width: 2048
VWidth: 0
LayerCount: 2
Fore
SplineSet
0 64 m 25
 683 64 l 25
0 192 m 25
 683 192 l 25
0 320 m 25
 683 320 l 25
0 448 m 25
 683 448 l 25
0 576 m 25
 683 576 l 25
0 704 m 25
 683 704 l 25
0 832 m 25
 683 832 l 25
0 960 m 25
 683 960 l 25
0 1088 m 25
 683 1088 l 25
0 1216 m 25
 683 1216 l 25
1984 1338 m 25
 1984 -27 l 25
1856 1338 m 25
 1856 -27 l 25
1728 1338 m 25
 1728 -27 l 25
1600 1338 m 25
 1600 -27 l 25
1472 1338 m 25
 1472 -27 l 25
1920 1338 m 25
 1920 -27 l 25
1792 1338 m 25
 1792 -27 l 25
1664 1338 m 25
 1664 -27 l 25
1536 1338 m 25
 1536 -27 l 25
1408 1338 m 25
 1408 -27 l 25
0 0 m 25
 683 0 l 25
0 128 m 25
 683 128 l 25
0 256 m 25
 683 256 l 25
0 384 m 25
 683 384 l 25
0 512 m 25
 683 512 l 25
0 640 m 25
 683 640 l 25
0 768 m 25
 683 768 l 25
0 896 m 25
 683 896 l 25
0 1024 m 25
 683 1024 l 25
0 1152 m 25
 683 1152 l 25
0 1280 m 25
 683 1280 l 25
0 -27 m 1
 2048 -27 l 1
 2048 1338 l 1
 0 1338 l 1
 0 -27 l 1
0 -27 m 1
 1365 -27 l 1
 1365 1338 l 1
 0 1338 l 1
 0 -27 l 1
0 -27 m 1
 683 -27 l 1
 683 1338 l 1
 0 1338 l 1
 0 -27 l 1
EndSplineSet
LCarets2: 1 0 
Ligature2: "Compositio figurarum vexillorum-1" Fregio Rregio
EndChar

StartChar: Italia
Encoding: 60884 60884 125
Width: 2048
VWidth: 0
LayerCount: 2
Fore
SplineSet
1984 1338 m 25
 1984 -27 l 25
1856 1338 m 25
 1856 -27 l 25
1728 1338 m 25
 1728 -27 l 25
1600 1338 m 25
 1600 -27 l 25
1472 1338 m 25
 1472 -27 l 25
0 0 m 25
 27 -27 l 25
0 128 m 25
 155 -27 l 25
0 256 m 25
 283 -27 l 25
0 384 m 25
 411 -27 l 25
0 512 m 25
 539 -27 l 25
0 640 m 25
 667 -27 l 25
0 768 m 25
 682 86 l 25
0 896 m 25
 682 214 l 25
0 1024 m 25
 682 342 l 25
0 1152 m 25
 682 470 l 25
0 1280 m 25
 682 598 l 25
70 1338 m 25
 682 726 l 25
198 1338 m 25
 682 854 l 25
326 1338 m 25
 682 982 l 25
454 1338 m 25
 682 1110 l 25
582 1338 m 25
 682 1238 l 25
1920 1338 m 25
 1920 -27 l 25
1792 1338 m 25
 1792 -27 l 25
1664 1338 m 25
 1664 -27 l 25
1536 1338 m 25
 1536 -27 l 25
1408 1338 m 25
 1408 -27 l 25
0 -27 m 1
 683 -27 l 1
 683 1338 l 1
 0 1338 l 1
 0 -27 l 1
683 -27 m 1
 1365 -27 l 1
 1365 1338 l 1
 683 1338 l 1
 683 -27 l 1
1365 -27 m 1
 2048 -27 l 1
 2048 1338 l 1
 1365 1338 l 1
 1365 -27 l 1
EndSplineSet
LCarets2: 1 0 
Ligature2: "Compositio figurarum vexillorum-1" Iregio Rregio
EndChar

StartChar: Germania
Encoding: 60709 60709 126
Width: 2048
VWidth: 0
LayerCount: 2
Fore
SplineSet
64 320 m 25,0,0
64 64 m 25,0,0
64 192 m 25,0,0
1984 320 m 25,0,0
1856 320 m 25,0,0
1728 320 m 25,0,0
1600 320 m 25,0,0
1472 320 m 25,0,0
1344 320 m 25,0,0
1216 320 m 25,0,0
1088 320 m 25,0,0
960 320 m 25,0,0
832 320 m 25,0,0
704 320 m 25,0,0
576 320 m 25,0,0
448 320 m 25,0,0
320 320 m 25,0,0
192 320 m 25,0,0
1984 64 m 25,0,0
1856 64 m 25,0,0
1728 64 m 25,0,0
1600 64 m 25,0,0
1472 64 m 25,0,0
1344 64 m 25,0,0
1216 64 m 25,0,0
1088 64 m 25,0,0
960 64 m 25,0,0
832 64 m 25,0,0
704 64 m 25,0,0
576 64 m 25,0,0
448 64 m 25,0,0
320 64 m 25,0,0
192 64 m 25,0,0
1984 192 m 25,0,0
1856 192 m 25,0,0
1728 192 m 25,0,0
1600 192 m 25,0,0
1472 192 m 25,0,0
1344 192 m 25,0,0
1216 192 m 25,0,0
1088 192 m 25,0,0
960 192 m 25,0,0
832 192 m 25,0,0
704 192 m 25,0,0
576 192 m 25,0,0
448 192 m 25,0,0
320 192 m 25,0,0
192 192 m 25,0,0
0 960 m 25,0,0
 2048 960 l 25,0,0
0 1088 m 25,0,0
 2048 1088 l 25,0,0
0 1216 m 25,0,0
 2048 1216 l 25,0,0
64 1254 m 25,0,0
 64 435 l 25,0,0
1984 1254 m 25,0,0
 1984 435 l 25,0,0
1856 1254 m 25,0,0
 1856 435 l 25,0,0
1728 1254 m 25,0,0
 1728 435 l 25,0,0
1600 1254 m 25,0,0
 1600 435 l 25,0,0
1472 1254 m 25,0,0
 1472 435 l 25,0,0
1344 1254 m 25,0,0
 1344 435 l 25,0,0
1216 1254 m 25,0,0
 1216 435 l 25,0,0
1088 1254 m 25,0,0
 1088 435 l 25,0,0
960 1254 m 25,0,0
 960 435 l 25,0,0
832 1254 m 25,0,0
 832 435 l 25,0,0
704 1254 m 25,0,0
 704 435 l 25,0,0
576 1254 m 25,0,0
 576 435 l 25,0,0
448 1254 m 25,0,0
 448 435 l 25,0,0
320 1254 m 25,0,0
 320 435 l 25,0,0
192 1254 m 25,0,0
 192 435 l 25,0,0
1920 384 m 25,0,0
1792 384 m 25,0,0
1664 384 m 25,0,0
1536 384 m 25,0,0
1408 384 m 25,0,0
1280 384 m 25,0,0
1152 384 m 25,0,0
1024 384 m 25,0,0
896 384 m 25,0,0
768 384 m 25,0,0
640 384 m 25,0,0
512 384 m 25,0,0
384 384 m 25,0,0
256 384 m 25,0,0
128 384 m 25,0,0
1920 128 m 25,0,0
1792 128 m 25,0,0
1664 128 m 25,0,0
1536 128 m 25,0,0
1408 128 m 25,0,0
1280 128 m 25,0,0
1152 128 m 25,0,0
1024 128 m 25,0,0
896 128 m 25,0,0
768 128 m 25,0,0
640 128 m 25,0,0
512 128 m 25,0,0
384 128 m 25,0,0
256 128 m 25,0,0
128 128 m 25,0,0
1920 256 m 25,0,0
1792 256 m 25,0,0
1664 256 m 25,0,0
1536 256 m 25,0,0
1408 256 m 25,0,0
1280 256 m 25,0,0
1152 256 m 25,0,0
1024 256 m 25,0,0
896 256 m 25,0,0
768 256 m 25,0,0
640 256 m 25,0,0
512 256 m 25,0,0
384 256 m 25,0,0
256 256 m 25,0,0
128 256 m 25,0,0
0 896 m 25,0,0
 2048 896 l 25,0,0
0 1024 m 25,0,0
 2048 1024 l 25,0,0
0 1152 m 25,0,0
 2048 1152 l 25,0,0
1920 1254 m 25,0,0
 1920 435 l 25,0,0
1792 1254 m 25,0,0
 1792 435 l 25,0,0
1664 1254 m 25,0,0
 1664 435 l 25,0,0
1536 1254 m 25,0,0
 1536 435 l 25,0,0
1408 1254 m 25,0,0
 1408 435 l 25,0,0
1280 1254 m 25,0,0
 1280 435 l 25,0,0
1152 1254 m 25,0,0
 1152 435 l 25,0,0
1024 1254 m 25,0,0
 1024 435 l 25,0,0
896 1254 m 25,0,0
 896 435 l 25,0,0
768 1254 m 25,0,0
 768 435 l 25,0,0
640 1254 m 25,0,0
 640 435 l 25,0,0
512 1254 m 25,0,0
 512 435 l 25,0,0
384 1254 m 25,0,0
 384 435 l 25,0,0
256 1254 m 25,0,0
 256 435 l 25,0,0
128 1254 m 25,0,0
 128 435 l 25,0,0
0 26 m 1,1,-1
 2048 26 l 1,2,-1
 2048 1255 l 1,3,-1
 0 1255 l 1,4,-1
 0 26 l 1,1,-1
0 26 m 1,5,-1
 2048 26 l 1,6,-1
 2048 845 l 1,7,-1
 0 845 l 1,8,-1
 0 26 l 1,5,-1
0 26 m 1,9,-1
 2048 26 l 1,10,-1
 2048 436 l 1,11,-1
 0 436 l 1,12,-1
 0 26 l 1,9,-1
EndSplineSet
LCarets2: 1 0 
Ligature2: "Compositio figurarum vexillorum-1" Dregio Eregio
EndChar

StartChar: Belgium
Encoding: 60645 60645 127
Width: 2048
VWidth: 0
LayerCount: 2
Fore
SplineSet
704 -192 m 25,0,0
704 -64 m 25,0,0
704 64 m 25,0,0
704 192 m 25,0,0
704 320 m 25,0,0
704 448 m 25,0,0
704 576 m 25,0,0
704 704 m 25,0,0
704 832 m 25,0,0
704 960 m 25,0,0
704 1088 m 25,0,0
704 1216 m 25,0,0
704 1344 m 25,0,0
704 1472 m 25,0,0
1344 -192 m 25,0,0
1216 -192 m 25,0,0
1088 -192 m 25,0,0
960 -192 m 25,0,0
832 -192 m 25,0,0
1344 -64 m 25,0,0
1344 64 m 25,0,0
1344 192 m 25,0,0
1344 320 m 25,0,0
1344 448 m 25,0,0
1344 576 m 25,0,0
1344 704 m 25,0,0
1344 832 m 25,0,0
1344 960 m 25,0,0
1344 1088 m 25,0,0
1344 1216 m 25,0,0
1344 1344 m 25,0,0
1344 1472 m 25,0,0
1216 -64 m 25,0,0
1216 64 m 25,0,0
1216 192 m 25,0,0
1216 320 m 25,0,0
1216 448 m 25,0,0
1216 576 m 25,0,0
1216 704 m 25,0,0
1216 832 m 25,0,0
1216 960 m 25,0,0
1216 1088 m 25,0,0
1216 1216 m 25,0,0
1216 1344 m 25,0,0
1216 1472 m 25,0,0
1088 -64 m 25,0,0
1088 64 m 25,0,0
1088 192 m 25,0,0
1088 320 m 25,0,0
1088 448 m 25,0,0
1088 576 m 25,0,0
1088 704 m 25,0,0
1088 832 m 25,0,0
1088 960 m 25,0,0
1088 1088 m 25,0,0
1088 1216 m 25,0,0
1088 1344 m 25,0,0
1088 1472 m 25,0,0
960 -64 m 25,0,0
960 64 m 25,0,0
960 192 m 25,0,0
960 320 m 25,0,0
960 448 m 25,0,0
960 576 m 25,0,0
960 704 m 25,0,0
960 832 m 25,0,0
960 960 m 25,0,0
960 1088 m 25,0,0
960 1216 m 25,0,0
960 1344 m 25,0,0
960 1472 m 25,0,0
832 -64 m 25,0,0
832 64 m 25,0,0
832 192 m 25,0,0
832 320 m 25,0,0
832 448 m 25,0,0
832 576 m 25,0,0
832 704 m 25,0,0
832 832 m 25,0,0
832 960 m 25,0,0
832 1088 m 25,0,0
832 1216 m 25,0,0
832 1344 m 25,0,0
832 1472 m 25,0,0
0 -192 m 25,0,0
 683 -192 l 25,0,0
0 -64 m 25,0,0
 683 -64 l 25,0,0
0 64 m 25,0,0
 683 64 l 25,0,0
0 192 m 25,0,0
 683 192 l 25,0,0
0 320 m 25,0,0
 683 320 l 25,0,0
0 448 m 25,0,0
 683 448 l 25,0,0
0 576 m 25,0,0
 683 576 l 25,0,0
0 704 m 25,0,0
 683 704 l 25,0,0
0 832 m 25,0,0
 683 832 l 25,0,0
0 960 m 25,0,0
 683 960 l 25,0,0
0 1088 m 25,0,0
 683 1088 l 25,0,0
0 1216 m 25,0,0
 683 1216 l 25,0,0
0 1344 m 25,0,0
 683 1344 l 25,0,0
0 1472 m 25,0,0
 683 1472 l 25,0,0
576 1527 m 25,0,0
 576 -248 l 25,0,0
448 1527 m 25,0,0
 448 -248 l 25,0,0
320 1527 m 25,0,0
 320 -248 l 25,0,0
192 1527 m 25,0,0
 192 -248 l 25,0,0
64 1527 m 25,0,0
 64 -248 l 25,0,0
1984 1527 m 25,0,0
 1984 -248 l 25,0,0
1856 1527 m 25,0,0
 1856 -248 l 25,0,0
1728 1527 m 25,0,0
 1728 -248 l 25,0,0
1600 1527 m 25,0,0
 1600 -248 l 25,0,0
1472 1527 m 25,0,0
 1472 -248 l 25,0,0
1280 -128 m 25,0,0
1280 0 m 25,0,0
1280 128 m 25,0,0
1280 256 m 25,0,0
1280 384 m 25,0,0
1280 512 m 25,0,0
1280 640 m 25,0,0
1280 768 m 25,0,0
1280 896 m 25,0,0
1280 1024 m 25,0,0
1280 1152 m 25,0,0
1280 1280 m 25,0,0
1280 1408 m 25,0,0
1152 -128 m 25,0,0
1152 0 m 25,0,0
1152 128 m 25,0,0
1152 256 m 25,0,0
1152 384 m 25,0,0
1152 512 m 25,0,0
1152 640 m 25,0,0
1152 768 m 25,0,0
1152 896 m 25,0,0
1152 1024 m 25,0,0
1152 1152 m 25,0,0
1152 1280 m 25,0,0
1152 1408 m 25,0,0
1024 -128 m 25,0,0
1024 0 m 25,0,0
1024 128 m 25,0,0
1024 256 m 25,0,0
1024 384 m 25,0,0
1024 512 m 25,0,0
1024 640 m 25,0,0
1024 768 m 25,0,0
1024 896 m 25,0,0
1024 1024 m 25,0,0
1024 1152 m 25,0,0
1024 1280 m 25,0,0
1024 1408 m 25,0,0
896 -128 m 25,0,0
896 0 m 25,0,0
896 128 m 25,0,0
896 256 m 25,0,0
896 384 m 25,0,0
896 512 m 25,0,0
896 640 m 25,0,0
896 768 m 25,0,0
896 896 m 25,0,0
896 1024 m 25,0,0
896 1152 m 25,0,0
896 1280 m 25,0,0
896 1408 m 25,0,0
768 -128 m 25,0,0
768 0 m 25,0,0
768 128 m 25,0,0
768 256 m 25,0,0
768 384 m 25,0,0
768 512 m 25,0,0
768 640 m 25,0,0
768 768 m 25,0,0
768 896 m 25,0,0
768 1024 m 25,0,0
768 1152 m 25,0,0
768 1280 m 25,0,0
768 1408 m 25,0,0
0 -128 m 25,0,0
 683 -128 l 25,0,0
0 0 m 25,0,0
 683 0 l 25,0,0
0 128 m 25,0,0
 683 128 l 25,0,0
0 256 m 25,0,0
 683 256 l 25,0,0
0 384 m 25,0,0
 683 384 l 25,0,0
0 512 m 25,0,0
 683 512 l 25,0,0
0 640 m 25,0,0
 683 640 l 25,0,0
0 768 m 25,0,0
 683 768 l 25,0,0
0 896 m 25,0,0
 683 896 l 25,0,0
0 1024 m 25,0,0
 683 1024 l 25,0,0
0 1152 m 25,0,0
 683 1152 l 25,0,0
0 1280 m 25,0,0
 683 1280 l 25,0,0
0 1408 m 25,0,0
 683 1408 l 25,0,0
640 1527 m 25,0,0
 640 -248 l 25,0,0
1920 1527 m 25,0,0
 1920 -248 l 25,0,0
1792 1527 m 25,0,0
 1792 -248 l 25,0,0
1664 1527 m 25,0,0
 1664 -248 l 25,0,0
1536 1527 m 25,0,0
 1536 -248 l 25,0,0
1408 1527 m 25,0,0
 1408 -248 l 25,0,0
512 1527 m 25,0,0
 512 -248 l 25,0,0
384 1527 m 25,0,0
 384 -248 l 25,0,0
256 1527 m 25,0,0
 256 -248 l 25,0,0
128 1527 m 25,0,0
 128 -248 l 25,0,0
0 -248 m 1,1,-1
 2048 -248 l 1,2,-1
 2048 1527 l 1,3,-1
 0 1527 l 1,4,-1
 0 -248 l 1,1,-1
683 -248 m 1,5,-1
 1365 -248 l 1,6,-1
 1365 1527 l 1,7,-1
 683 1527 l 1,8,-1
 683 -248 l 1,5,-1
1365 -248 m 1,9,-1
 2048 -248 l 1,10,-1
 2048 1527 l 1,11,-1
 1365 1527 l 1,12,-1
 1365 -248 l 1,9,-1
EndSplineSet
LCarets2: 1 0 
Ligature2: "Compositio figurarum vexillorum-1" Bregio Eregio
EndChar

StartChar: Polonia
Encoding: 61100 61100 128
Width: 2048
VWidth: 0
LayerCount: 2
Fore
SplineSet
64 640 m 25
 64 0 l 25
1984 640 m 25
 1984 0 l 25
1856 640 m 25
 1856 0 l 25
1728 640 m 25
 1728 0 l 25
1600 640 m 25
 1600 0 l 25
1472 640 m 25
 1472 0 l 25
1344 640 m 25
 1344 0 l 25
1216 640 m 25
 1216 0 l 25
1088 640 m 25
 1088 0 l 25
960 640 m 25
 960 0 l 25
832 640 m 25
 832 0 l 25
704 640 m 25
 704 0 l 25
576 640 m 25
 576 0 l 25
448 640 m 25
 448 0 l 25
320 640 m 25
 320 0 l 25
192 640 m 25
 192 0 l 25
1920 640 m 25
 1920 0 l 25
1792 640 m 25
 1792 0 l 25
1664 640 m 25
 1664 0 l 25
1536 640 m 25
 1536 0 l 25
1408 640 m 25
 1408 0 l 25
1280 640 m 25
 1280 0 l 25
1152 640 m 25
 1152 0 l 25
1024 640 m 25
 1024 0 l 25
896 640 m 25
 896 0 l 25
768 640 m 25
 768 0 l 25
640 640 m 25
 640 0 l 25
512 640 m 25
 512 0 l 25
384 640 m 25
 384 0 l 25
256 640 m 25
 256 0 l 25
128 640 m 25
 128 0 l 25
0 0 m 1
 2048 0 l 1
 2048 1280 l 1
 0 1280 l 1
 0 0 l 1
0 0 m 1
 2048 0 l 1
 2048 640 l 1
 0 640 l 1
 0 0 l 1
EndSplineSet
LCarets2: 1 0 
Ligature2: "Compositio figurarum vexillorum-1" Pregio Lregio
EndChar

StartChar: Graecia
Encoding: 60818 60818 129
Width: 2048
VWidth: 0
LayerCount: 2
Fore
SplineSet
455 825 m 25
 759 825 l 25
0 569 m 17
 75 569 182 569 303 569 c 9
455 569 m 17
 1038 569 1516 569 2048 569 c 9
455 697 m 17
 1038 697 1516 697 2048 697 c 9
759 953 m 25
 2048 953 l 25
455 1081 m 17
 559 1081 666 1081 759 1081 c 9
2048 1209 m 25
 455 1209 l 25
0 1209 m 25
 303 1209 l 25
0 1081 m 25
 303 1081 l 25
0 825 m 25
 303 825 l 25
0 697 m 17
 75 697 182 697 303 697 c 9
0 313 m 25
 2048 313 l 25
0 57 m 25
 2048 57 l 25
455 761 m 25
 759 761 l 25
455 1145 m 17
 559 1145 666 1145 759 1145 c 9
759 889 m 25
 2048 889 l 25
2048 1273 m 25
 455 1273 l 25
0 -7 m 25
 2048 -7 l 25
0 377 m 25
 2048 377 l 25
0 633 m 17
 75 633 182 633 303 633 c 9
0 761 m 25
 303 761 l 25
455 633 m 17
 1038 633 1516 633 2048 633 c 9
0 1145 m 25
 303 1145 l 25
0 1273 m 25
 303 1273 l 25
0 -43 m 1
 2048 -43 l 1
 2048 1322 l 1
 0 1322 l 1
 0 -43 l 1
303 1322 m 1
 455 1322 l 1
 455 1019 l 1
 759 1019 l 1
 759 867 l 1
 455 867 l 1
 455 564 l 1
 2048 564 l 1
 2048 412 l 1
 0 412 l 1
 0 564 l 1
 303 564 l 1
 303 867 l 1
 0 867 l 1
 0 1019 l 1
 303 1019 l 1
 303 1322 l 1
759 1171 m 1
 2048 1171 l 1
 2048 1019 l 1
 759 1019 l 1
 759 1171 l 1
759 867 m 1
 2048 867 l 1
 2048 716 l 1
 759 716 l 1
 759 867 l 1
0 564 m 1
 0 412 l 1
 0 564 l 1
0 260 m 1
 2048 260 l 1
 2048 109 l 1
 0 109 l 1
 0 260 l 1
EndSplineSet
LCarets2: 1 0 
Ligature2: "Compositio figurarum vexillorum-1" Gregio Rregio
EndChar

StartChar: Hungaria
Encoding: 60853 60853 130
Width: 2048
VWidth: 0
LayerCount: 2
Fore
SplineSet
64 1152 m 25
 64 811 l 25
1984 1152 m 25
 1984 811 l 25
1856 1152 m 25
 1856 811 l 25
1728 1152 m 25
 1728 811 l 25
1600 1152 m 25
 1600 811 l 25
1472 1152 m 25
 1472 811 l 25
1344 1152 m 25
 1344 811 l 25
1216 1152 m 25
 1216 811 l 25
1088 1152 m 25
 1088 811 l 25
960 1152 m 25
 960 811 l 25
832 1152 m 25
 832 811 l 25
704 1152 m 25
 704 811 l 25
576 1152 m 25
 576 811 l 25
448 1152 m 25
 448 811 l 25
320 1152 m 25
 320 811 l 25
192 1152 m 25
 192 811 l 25
1963 469 m 25
 2048 384 l 25
1835 469 m 25
 2048 256 l 25
1707 469 m 25
 2048 128 l 25
1579 469 m 25
 1920 128 l 25
1451 469 m 25
 1792 128 l 25
1323 469 m 25
 1664 128 l 25
1195 469 m 25
 1536 128 l 25
1067 469 m 25
 1408 128 l 25
939 469 m 25
 1280 128 l 25
811 469 m 25
 1152 128 l 25
683 469 m 25
 1024 128 l 25
555 469 m 25
 896 128 l 25
427 469 m 25
 768 128 l 25
299 469 m 25
 640 128 l 25
171 469 m 25
 512 128 l 25
43 469 m 25
 384 128 l 25
0 384 m 25
 256 128 l 25
0 256 m 25
 128 128 l 25
1920 1152 m 25
 1920 811 l 25
1792 1152 m 25
 1792 811 l 25
1664 1152 m 25
 1664 811 l 25
1536 1152 m 25
 1536 811 l 25
1408 1152 m 25
 1408 811 l 25
1280 1152 m 25
 1280 811 l 25
1152 1152 m 25
 1152 811 l 25
1024 1152 m 25
 1024 811 l 25
896 1152 m 25
 896 811 l 25
768 1152 m 25
 768 811 l 25
640 1152 m 25
 640 811 l 25
512 1152 m 25
 512 811 l 25
384 1152 m 25
 384 811 l 25
256 1152 m 25
 256 811 l 25
128 1152 m 25
 128 811 l 25
0 811 m 1
 2048 811 l 1
 2048 1152 l 1
 0 1152 l 1
 0 811 l 1
0 469 m 1
 2048 469 l 1
 2048 811 l 1
 0 811 l 1
 0 469 l 1
0 128 m 1
 2048 128 l 1
 2048 469 l 1
 0 469 l 1
 0 128 l 1
EndSplineSet
LCarets2: 1 0 
Ligature2: "Compositio figurarum vexillorum-1" Hregio Uregio
EndChar

StartChar: Dania
Encoding: 60715 60715 131
Width: 2048
VWidth: 0
LayerCount: 2
Fore
SplineSet
1984 529 m 25
 1984 -135 l 25
1920 529 m 25
 1920 -135 l 25
1856 529 m 25
 1856 -135 l 25
1792 529 m 25
 1792 -135 l 25
1728 529 m 25
 1728 -135 l 25
1664 529 m 25
 1664 -135 l 25
1600 529 m 25
 1600 -135 l 25
1536 529 m 25
 1536 -135 l 25
1472 529 m 25
 1472 -135 l 25
1408 529 m 25
 1408 -135 l 25
1344 529 m 25
 1344 -135 l 25
1280 529 m 25
 1280 -135 l 25
1216 529 m 25
 1216 -135 l 25
1152 529 m 25
 1152 -135 l 25
1088 529 m 25
 1088 -135 l 25
1024 529 m 25
 1024 -135 l 25
960 529 m 25
 960 -135 l 25
896 529 m 25
 896 -135 l 25
640 529 m 25
 640 -135 l 25
576 529 m 25
 576 -135 l 25
512 529 m 25
 512 -135 l 25
448 529 m 25
 448 -135 l 25
384 529 m 25
 384 -135 l 25
320 529 m 25
 320 -135 l 25
256 529 m 25
 256 -135 l 25
192 529 m 25
 192 -135 l 25
128 529 m 25
 128 -135 l 25
64 529 m 25
 64 -135 l 25
1984 1415 m 25
 1984 751 l 25
1920 1415 m 25
 1920 751 l 25
1856 1415 m 25
 1856 751 l 25
1792 1415 m 25
 1792 751 l 25
1728 1415 m 25
 1728 751 l 25
1664 1415 m 25
 1664 751 l 25
1600 1415 m 25
 1600 751 l 25
1536 1415 m 25
 1536 751 l 25
1472 1415 m 25
 1472 751 l 25
1408 1415 m 25
 1408 751 l 25
1344 1415 m 25
 1344 751 l 25
1280 1415 m 25
 1280 751 l 25
1216 1415 m 25
 1216 751 l 25
1152 1415 m 25
 1152 751 l 25
1088 1415 m 25
 1088 751 l 25
1024 1415 m 25
 1024 751 l 25
960 1415 m 25
 960 751 l 25
896 1415 m 25
 896 751 l 25
640 1415 m 25
 640 751 l 25
576 1415 m 25
 576 751 l 25
512 1415 m 25
 512 751 l 25
448 1415 m 25
 448 751 l 25
384 1415 m 25
 384 751 l 25
320 1415 m 25
 320 751 l 25
256 1415 m 25
 256 751 l 25
192 1415 m 25
 192 751 l 25
128 1415 m 25
 128 751 l 25
64 1415 m 25
 64 751 l 25
0 -135 m 1
 664 -135 l 1
 886 -135 l 1
 2048 -135 l 1
 2048 529 l 1
 2048 751 l 1
 2048 1415 l 1
 886 1415 l 1
 664 1415 l 1
 0 1415 l 1
 0 751 l 1
 0 529 l 1
 0 -135 l 1
886 529 m 1
 886 -135 l 1
 664 -135 l 1
 664 529 l 1
 0 529 l 1
 0 751 l 1
 664 751 l 1
 664 1415 l 1
 886 1415 l 1
 886 751 l 1
 2048 751 l 1
 2048 529 l 1
 886 529 l 1
EndSplineSet
LCarets2: 1 0 
Ligature2: "Compositio figurarum vexillorum-1" Dregio Kregio
EndChar
